<?xml version="1.0" encoding="UTF-8"?>
<svg version="1.1" xmlns="http://www.w3.org/2000/svg" width="309" height="270">
<path d="M0 0 C101.97 0 203.94 0 309 0 C309 89.1 309 178.2 309 270 C207.03 270 105.06 270 0 270 C0 180.9 0 91.8 0 0 Z " fill="#FEFEFE" transform="translate(0,0)"/>
<path d="M0 0 C7.44214416 6.11212241 11.35621095 13.61731382 12.625 23.125 C12.75888012 26.1067474 12.75161017 29.08355277 12.73852539 32.06787109 C12.73867142 32.9465686 12.73881744 33.82526611 12.7389679 34.73059082 C12.73827413 37.61989861 12.7305069 40.50914104 12.72265625 43.3984375 C12.72079017 45.40768397 12.71936716 47.41693089 12.71836853 49.42617798 C12.71455836 54.70332098 12.7047409 59.98043627 12.69366455 65.25756836 C12.68341816 70.64696884 12.678864 76.03637382 12.67382812 81.42578125 C12.66311726 91.99219965 12.64605888 102.55859751 12.625 113.125 C11.34455128 112.17285033 10.065227 111.21918839 8.78637695 110.26489258 C8.07383255 109.73398514 7.36128815 109.2030777 6.62715149 108.65608215 C4.23499104 106.82675296 2.01729603 104.86284447 -0.1875 102.8125 C-4.53648329 98.83647699 -9.03872249 95.10864954 -13.62109375 91.40625 C-17.31582791 88.34564752 -20.85149944 85.12585811 -24.37890625 81.875 C-26.25950675 80.07718021 -26.25950675 80.07718021 -28.375 79.125 C-28.375 78.465 -28.375 77.805 -28.375 77.125 C-21.115 77.125 -13.855 77.125 -6.375 77.125 C-6.44383968 69.38338875 -6.53179072 61.64231949 -6.63745117 53.90112305 C-6.67070325 51.26772064 -6.69873424 48.63424691 -6.72143555 46.00073242 C-6.75497529 42.21502289 -6.8072932 38.42996711 -6.86328125 34.64453125 C-6.86967117 33.46727982 -6.8760611 32.29002838 -6.88264465 31.07710266 C-6.91233589 29.42595711 -6.91233589 29.42595711 -6.94262695 27.74145508 C-6.95928154 26.29250603 -6.95928154 26.29250603 -6.97627258 24.81428528 C-7.44323734 21.66476157 -8.65903779 19.77409098 -10.375 17.125 C-10.375 16.465 -10.375 15.805 -10.375 15.125 C-17.39612815 12.39456128 -23.26423355 10.62298918 -30.625 13.3125 C-37.33574814 17.73549309 -37.53017948 20.82330768 -39.375 29.125 C-45.645 29.125 -51.915 29.125 -58.375 29.125 C-58.04365408 18.74282779 -56.80413266 11.21850256 -49.875 3.25 C-49.05 2.54875 -48.225 1.8475 -47.375 1.125 C-46.55 0.403125 -45.725 -0.31875 -44.875 -1.0625 C-33.15468086 -9.55973138 -11.55926305 -8.21427484 0 0 Z " fill="#0D763E" transform="translate(105.375,34.875)"/>
<path d="M0 0 C3.84347804 2.52424707 7.32279282 5.05129586 10.6875 8.1875 C14.18572831 11.39246366 17.7430704 14.4608453 21.4375 17.4375 C28.25893331 22.95868855 34.79311307 28.79311307 41 35 C33.41 35 25.82 35 18 35 C18.0511219 42.40245125 18.11416743 49.80282703 18.20751953 57.20458984 C18.23567877 59.72047175 18.25691828 62.2364413 18.27099609 64.75244141 C18.29249456 68.37708236 18.3391837 72.00067517 18.390625 75.625 C18.39185364 76.74302002 18.39308228 77.86104004 18.39434814 79.01293945 C18.530654 86.34366054 19.51685202 92.02564073 24.44683838 97.65087891 C28.24012535 100.94583765 33.30892004 100.32884326 38.046875 100.27734375 C42.05533153 99.90088818 44.12470934 98.80156526 47 96 C49.9465149 91.4278217 50.18844887 88.68085792 51 83 C57.6 83 64.2 83 71 83 C70.63563721 90.9248907 69.94611625 97.08096508 66 104 C65.6390625 104.63808594 65.278125 105.27617187 64.90625 105.93359375 C60.23752131 113.26791416 53.24684709 116.49894925 44.984375 118.49609375 C34.84566044 120.20799713 23.47164515 119.80049571 14.42578125 114.48828125 C5.41316315 107.85916546 1.76340621 101.00331771 0 90 C-0.51516243 83.06262864 -0.35056644 76.09137237 -0.29296875 69.140625 C-0.28736316 67.13995687 -0.28309762 65.13928458 -0.28010559 63.13861084 C-0.26873259 57.91076999 -0.23933154 52.6831851 -0.20599365 47.45544434 C-0.17512884 42.1057481 -0.1615654 36.7560099 -0.14648438 31.40625 C-0.11445365 20.93738846 -0.06335012 10.46871564 0 0 Z " fill="#DF263D" transform="translate(37,62)"/>
<path d="M0 0 C2.31 0 4.62 0 7 0 C7 13.53 7 27.06 7 41 C0.6072406 43.1309198 -5.54682873 44.51440567 -12.125 42.27734375 C-16.6367888 39.87559411 -19.7306624 36.53867519 -22 32 C-22.43032383 25.65272352 -22.03990407 20.51988892 -17.6640625 15.453125 C-12.32555756 10.81774022 -6.77546347 11.61935599 0 12 C0 8.04 0 4.08 0 0 Z " fill="#8B8B8B" transform="translate(234,214)"/>
<path d="M0 0 C0.845625 0.495 1.69125 0.99 2.5625 1.5 C1.96066251 3.52045442 1.28943904 5.52111039 0.5625 7.5 C-0.4275 7.995 -0.4275 7.995 -1.4375 8.5 C-2.2625 8.190625 -3.0875 7.88125 -3.9375 7.5625 C-8.42471814 6.20030878 -12.77376555 5.92961521 -17.4375 6.5 C-19.72478734 8.33883881 -19.72478734 8.33883881 -19.5625 11.125 C-19.52125 11.90875 -19.48 12.6925 -19.4375 13.5 C-18.73625 13.67015625 -18.035 13.8403125 -17.3125 14.015625 C-10.08410685 15.86200803 -3.50043204 17.66678786 2.0625 22.8125 C4.02630903 26.33099117 4.05972594 28.5221925 3.5625 32.5 C1.61808273 36.57401713 -0.54323481 39.59302851 -4.6484375 41.55859375 C-11.48498338 43.86616736 -19.19147048 43.43107025 -25.75 40.5 C-26.99210545 39.85776235 -28.2272869 39.2004851 -29.4375 38.5 C-28.4475 36.52 -27.4575 34.54 -26.4375 32.5 C-25.2825 32.83 -24.1275 33.16 -22.9375 33.5 C-17.49530059 34.83887738 -12.62731419 35.5949071 -7.4375 33 C-6.7775 32.505 -6.1175 32.01 -5.4375 31.5 C-5.9325 29.025 -5.9325 29.025 -6.4375 26.5 C-7.00597656 26.31824219 -7.57445312 26.13648438 -8.16015625 25.94921875 C-23.63880767 20.91025877 -23.63880767 20.91025877 -27.4375 15.5 C-28.3537736 10.62124497 -28.20412068 6.81420688 -25.6875 2.5 C-19.21640031 -3.25208861 -7.8356169 -3.40188306 0 0 Z " fill="#8C8C8C" transform="translate(147.4375,214.5)"/>
<path d="M0 0 C3.62678328 2.1035343 4.48051081 2.98674474 6.125 6.8125 C6.48312771 10.42535478 6.40746926 13.99912219 6.3125 17.625 C6.29219727 19.09356445 6.29219727 19.09356445 6.27148438 20.59179688 C6.23625312 22.99926625 6.18699265 25.40559564 6.125 27.8125 C2.02792524 30.09910679 -1.7071984 30.17963441 -6.3125 30.1875 C-7.06337891 30.21199219 -7.81425781 30.23648438 -8.58789062 30.26171875 C-12.53735751 30.28256026 -14.43273611 30.09494448 -17.84765625 27.9140625 C-20.45819329 25.20795667 -20.82164639 24.28379019 -21.25 20.5 C-20.875 16.8125 -20.875 16.8125 -18.5 13.9375 C-14.60518115 10.78455141 -12.71076566 10.6972259 -7.75 10.75 C-6.65429688 10.75902344 -5.55859375 10.76804688 -4.4296875 10.77734375 C-3.58664063 10.78894531 -2.74359375 10.80054688 -1.875 10.8125 C-2.205 9.8225 -2.535 8.8325 -2.875 7.8125 C-8.94320868 6.72889131 -12.97606757 7.02175266 -18.875 8.8125 C-19.24127907 3.31831395 -19.24127907 3.31831395 -17.5625 1 C-12.60791393 -2.48656057 -5.48256603 -2.06471104 0 0 Z " fill="#8D8D8D" transform="translate(217.875,163.1875)"/>
<path d="M0 0 C1.82144531 -0.02513672 1.82144531 -0.02513672 3.6796875 -0.05078125 C7.37364475 0.33871764 9.19879792 1.07327367 12.125 3.3125 C14.35913013 6.66369519 14.36347762 7.7302755 14.3203125 11.63671875 C14.31386719 12.66474609 14.30742187 13.69277344 14.30078125 14.75195312 C14.28402344 15.82380859 14.26726562 16.89566406 14.25 18 C14.24097656 19.08345703 14.23195313 20.16691406 14.22265625 21.28320312 C14.1990734 23.9598571 14.16616126 26.63606797 14.125 29.3125 C7.00294803 31.9726712 -0.16165134 32.55028289 -7.4375 30.125 C-10.2818413 28.00997699 -11.59321055 26.6300727 -12.875 23.3125 C-12.875 19.75 -12.875 19.75 -11.875 16.3125 C-7.48826119 12.03824167 -4.74922192 11.18617849 1.25 11.25 C2.34570312 11.25902344 3.44140625 11.26804688 4.5703125 11.27734375 C5.41335938 11.28894531 6.25640625 11.30054688 7.125 11.3125 C6.465 10.3225 5.805 9.3325 5.125 8.3125 C2.85996648 7.90934204 2.85996648 7.90934204 0.3125 8.0625 C-0.57824219 8.08828125 -1.46898437 8.1140625 -2.38671875 8.140625 C-4.95339181 8.31791482 -7.38657815 8.64892084 -9.875 9.3125 C-10.0625 5.9375 -10.0625 5.9375 -9.875 2.3125 C-6.23103999 -0.11680667 -4.33587919 0.01375015 0 0 Z " fill="#8C8C8C" transform="translate(276.875,225.6875)"/>
<path d="M0 0 C1.96066406 -0.04253906 1.96066406 -0.04253906 3.9609375 -0.0859375 C8.12042101 0.43732375 9.70735611 1.4355011 12.625 4.375 C13.90361615 6.93223229 13.73836609 8.74237102 13.72265625 11.6015625 C13.71943359 12.6328125 13.71621094 13.6640625 13.71289062 14.7265625 C13.70451172 15.80679688 13.69613281 16.88703125 13.6875 18 C13.68298828 19.08796875 13.67847656 20.1759375 13.67382812 21.296875 C13.66201776 23.98963789 13.64554778 26.68229188 13.625 29.375 C7.14515882 31.78207325 0.00564084 32.95441473 -6.671875 30.546875 C-9.20945863 29.14176671 -11.05688842 28.01122316 -12.375 25.375 C-13.07653846 18.24269231 -13.07653846 18.24269231 -10 14.4375 C-6.09228674 11.36715386 -4.17746646 11.26008014 0.75 11.3125 C1.84570312 11.32152344 2.94140625 11.33054688 4.0703125 11.33984375 C4.91335937 11.35144531 5.75640625 11.36304688 6.625 11.375 C5.965 10.385 5.305 9.395 4.625 8.375 C2.09611024 7.97157357 2.09611024 7.97157357 -0.75 8.125 C-2.18472656 8.14820313 -2.18472656 8.14820313 -3.6484375 8.171875 C-6.02592983 8.34899477 -8.09522692 8.70511407 -10.375 9.375 C-10.5625 6 -10.5625 6 -10.375 2.375 C-6.63236712 -0.12008858 -4.46631308 0.04387341 0 0 Z " fill="#8B8B8B" transform="translate(169.375,225.625)"/>
<path d="M0 0 C3.70323099 3.80609851 4.50632424 7.39677718 4.4453125 12.61328125 C4.43886719 13.58974609 4.43242187 14.56621094 4.42578125 15.57226562 C4.40902344 16.57966797 4.39226562 17.58707031 4.375 18.625 C4.36597656 19.65173828 4.35695313 20.67847656 4.34765625 21.73632812 C4.32416201 24.26195899 4.29131131 26.7871081 4.25 29.3125 C1.61 29.3125 -1.03 29.3125 -3.75 29.3125 C-3.77505615 28.68158447 -3.8001123 28.05066895 -3.82592773 27.40063477 C-3.94154137 24.55853175 -4.06442316 21.71678917 -4.1875 18.875 C-4.22681641 17.88177734 -4.26613281 16.88855469 -4.30664062 15.86523438 C-4.34853516 14.92099609 -4.39042969 13.97675781 -4.43359375 13.00390625 C-4.47025146 12.12935791 -4.50690918 11.25480957 -4.54467773 10.35375977 C-4.53181066 8.3197598 -4.53181066 8.3197598 -5.75 7.3125 C-9.05 6.9825 -12.35 6.6525 -15.75 6.3125 C-15.75 13.9025 -15.75 21.4925 -15.75 29.3125 C-18.06 29.3125 -20.37 29.3125 -22.75 29.3125 C-22.75 19.4125 -22.75 9.5125 -22.75 -0.6875 C-15.91025655 -2.05544869 -6.30643047 -3.88088029 0 0 Z " fill="#8D8D8D" transform="translate(254.75,163.6875)"/>
<path d="M0 0 C2.24310406 1.47703166 4.07017011 3.27720136 5.96484375 5.171875 C6.19189453 7.69384766 6.19189453 7.69384766 6.16015625 10.8359375 C6.15371094 11.95742187 6.14726562 13.07890625 6.140625 14.234375 C6.12386719 15.41 6.10710937 16.585625 6.08984375 17.796875 C6.08082031 18.98023438 6.07179687 20.16359375 6.0625 21.3828125 C6.03887187 24.31270023 6.00592889 27.2421884 5.96484375 30.171875 C3.65484375 30.171875 1.34484375 30.171875 -1.03515625 30.171875 C-1.0602124 29.61201904 -1.08526855 29.05216309 -1.11108398 28.4753418 C-1.2271937 25.93646195 -1.34985205 23.39793947 -1.47265625 20.859375 C-1.51197266 19.97830078 -1.55128906 19.09722656 -1.59179688 18.18945312 C-1.63369141 17.34189453 -1.67558594 16.49433594 -1.71875 15.62109375 C-1.75540771 14.84080811 -1.79206543 14.06052246 -1.82983398 13.2565918 C-1.97640888 10.97858399 -1.97640888 10.97858399 -3.03515625 8.171875 C-5.85504784 6.57559021 -5.85504784 6.57559021 -13.03515625 7.171875 C-13.03515625 14.761875 -13.03515625 22.351875 -13.03515625 30.171875 C-15.67515625 30.171875 -18.31515625 30.171875 -21.03515625 30.171875 C-21.03515625 20.601875 -21.03515625 11.031875 -21.03515625 1.171875 C-14.3484851 -0.73860247 -6.78449483 -2.76067736 0 0 Z " fill="#8D8D8D" transform="translate(184.03515625,162.828125)"/>
<path d="M0 0 C2.64 0 5.28 0 8 0 C8.09922625 5.01703179 8.17163587 10.03348652 8.21972656 15.05126953 C8.23978369 16.75644894 8.26703657 18.46156006 8.30175781 20.16650391 C8.35053861 22.62419524 8.37302719 25.08097366 8.390625 27.5390625 C8.41127014 28.29555084 8.43191528 29.05203918 8.45318604 29.83145142 C8.45535237 34.99620714 7.4023463 37.89614715 4 42 C1.16239474 43.41880263 -1.27682975 43.1320472 -4.4375 43.125 C-5.59121094 43.12757813 -6.74492188 43.13015625 -7.93359375 43.1328125 C-11 43 -11 43 -14 42 C-13.125 37.25 -13.125 37.25 -12 35 C-11.28972656 35.01160156 -10.57945313 35.02320313 -9.84765625 35.03515625 C-8.92855469 35.04417969 -8.00945312 35.05320313 -7.0625 35.0625 C-5.68771484 35.07990234 -5.68771484 35.07990234 -4.28515625 35.09765625 C-2.03406673 35.25949049 -2.03406673 35.25949049 -1 34 C-0.84011509 31.48119483 -0.74065775 28.98657734 -0.68359375 26.46484375 C-0.66281265 25.71159317 -0.64203156 24.95834259 -0.62062073 24.18226624 C-0.55504575 21.7674401 -0.49620379 19.35250202 -0.4375 16.9375 C-0.3943223 15.30402471 -0.35070827 13.6705609 -0.30664062 12.03710938 C-0.19935638 8.02485536 -0.09811179 4.01248836 0 0 Z " fill="#8D8D8D" transform="translate(130,150)"/>
<path d="M0 0 C3.02508145 1.73602105 5.41790069 3.83580137 7 7 C7.68128376 13.81283762 7.68128376 13.81283762 5.953125 16.82421875 C2.82207185 20.62752744 1.13366332 21.88663367 -3.75 22.375 C-7.06751516 22.34478584 -8.85116622 21.77284903 -11.4375 19.6875 C-14.4301569 16.54885984 -14.89293685 14.94572445 -15.375 10.6875 C-14.87765929 5.79698299 -13.42915508 4.42915508 -10 1 C-6.77140153 -0.61429923 -3.49006347 -0.59570657 0 0 Z " fill="#DF273D" transform="translate(24,104)"/>
<path d="M0 0 C0.95777344 0.00902344 1.91554687 0.01804688 2.90234375 0.02734375 C3.97162109 0.04474609 3.97162109 0.04474609 5.0625 0.0625 C5.0625 2.3725 5.0625 4.6825 5.0625 7.0625 C1.7625 7.0625 -1.5375 7.0625 -4.9375 7.0625 C-4.9375 14.6525 -4.9375 22.2425 -4.9375 30.0625 C-7.5775 30.0625 -10.2175 30.0625 -12.9375 30.0625 C-12.9375 20.4925 -12.9375 10.9225 -12.9375 1.0625 C-8.33229378 0.4046134 -4.53937568 -0.05604168 0 0 Z " fill="#8F8F8F" transform="translate(203.9375,225.9375)"/>
<path d="M0 0 C2.64 0 5.28 0 8 0 C8 9.9 8 19.8 8 30 C5.36 30 2.72 30 0 30 C0 20.1 0 10.2 0 0 Z " fill="#919191" transform="translate(147,163)"/>
<path d="M0 0 C0 5.28 0 10.56 0 16 C-9.625 16.25 -9.625 16.25 -13 14 C-14.19754817 10.40735548 -14.33094958 7.77282526 -14 4 C-10.86340695 -1.56032404 -5.66177671 -0.29798825 0 0 Z " fill="#FDFDFD" transform="translate(234,233)"/>
<path d="M0 0 C2.31 0 4.62 0 7 0 C7 9.57 7 19.14 7 29 C4.69 29 2.38 29 0 29 C0 19.43 0 9.86 0 0 Z " fill="#888888" transform="translate(250,227)"/>
<path d="M0 0 C2.375 1.625 2.375 1.625 4 4 C3.85205998 7.6985004 3.64194427 9.35805573 1 12 C-2.4375 12.375 -2.4375 12.375 -6 12 C-8 10.3125 -8 10.3125 -9 8 C-8.86080792 5.14656236 -8.36922147 3.53537114 -6.75 1.1875 C-4.29122834 -0.4809522 -2.91471407 -0.49763411 0 0 Z " fill="#C8C7CA" transform="translate(255,120)"/>
<path d="M0 0 C1.37478516 0.01740234 1.37478516 0.01740234 2.77734375 0.03515625 C3.69644531 0.04417969 4.61554688 0.05320313 5.5625 0.0625 C6.27277344 0.07410156 6.98304688 0.08570313 7.71484375 0.09765625 C7.71484375 2.40765625 7.71484375 4.71765625 7.71484375 7.09765625 C6.09020533 7.15161103 4.46505834 7.1904282 2.83984375 7.22265625 C1.93492187 7.24585938 1.03 7.2690625 0.09765625 7.29296875 C-2.28515625 7.09765625 -2.28515625 7.09765625 -4.28515625 5.09765625 C-3.53567763 0.15109733 -3.53567763 0.15109733 0 0 Z " fill="#FAFAFA" transform="translate(168.28515625,242.90234375)"/>
<path d="M0 0 C1.37478516 0.01740234 1.37478516 0.01740234 2.77734375 0.03515625 C3.69644531 0.04417969 4.61554688 0.05320313 5.5625 0.0625 C6.27277344 0.07410156 6.98304688 0.08570313 7.71484375 0.09765625 C7.75738731 2.09720371 7.75565158 4.09807261 7.71484375 6.09765625 C6.12590303 7.68659697 4.46682951 7.26764036 2.27734375 7.28515625 C1.07271484 7.30642578 1.07271484 7.30642578 -0.15625 7.328125 C-2.28515625 7.09765625 -2.28515625 7.09765625 -4.28515625 5.09765625 C-3.53567763 0.15109733 -3.53567763 0.15109733 0 0 Z " fill="#FBFBFB" transform="translate(276.28515625,242.90234375)"/>
<path d="M0 0 C1.37478516 0.01740234 1.37478516 0.01740234 2.77734375 0.03515625 C3.69644531 0.04417969 4.61554688 0.05320313 5.5625 0.0625 C6.27277344 0.07410156 6.98304688 0.08570313 7.71484375 0.09765625 C7.71484375 2.40765625 7.71484375 4.71765625 7.71484375 7.09765625 C6.25661163 7.12466055 4.798237 7.14405412 3.33984375 7.16015625 C2.52773437 7.17175781 1.715625 7.18335938 0.87890625 7.1953125 C-1.28515625 7.09765625 -1.28515625 7.09765625 -3.28515625 6.09765625 C-3.32787725 4.4315372 -3.32579457 2.7638274 -3.28515625 1.09765625 C-2.28515625 0.09765625 -2.28515625 0.09765625 0 0 Z " fill="#F9F9F9" transform="translate(208.28515625,179.90234375)"/>
<path d="M0 0 C2.5625 0.1875 2.5625 0.1875 4.5625 2.1875 C4.00694444 6.74305556 4.00694444 6.74305556 2.5625 8.1875 C0.125 8.375 0.125 8.375 -2.4375 8.1875 C-3.0975 7.5275 -3.7575 6.8675 -4.4375 6.1875 C-3.71780303 0.28598485 -3.71780303 0.28598485 0 0 Z " fill="#949494" transform="translate(253.4375,213.8125)"/>
<path d="M0 0 C3 0.125 3 0.125 4 1.125 C4.125 3.625 4.125 3.625 4 6.125 C3 7.125 3 7.125 0 7.25 C-3 7.125 -3 7.125 -4 6.125 C-4.125 3.625 -4.125 3.625 -4 1.125 C-3 0.125 -3 0.125 0 0 Z " fill="#8C8C8C" transform="translate(151,150.875)"/>
<path d="M0 0 C1.98 0 3.96 0 6 0 C6.625 3.375 6.625 3.375 7 7 C5 9 5 9 2.5 9.25 C0 9 0 9 -2 7 C-2.125 4.375 -2.125 4.375 -2 2 C-1.01 3.32 -0.02 4.64 1 6 C1.6814823 4.10820797 1.6814823 4.10820797 2 2 C1.34 1.34 0.68 0.68 0 0 Z " fill="#F5F6F3" transform="translate(250,122)"/>
</svg>
